<?xml version="1.0" encoding="iso-8859-1"?>
<!-- Uploaded to: SVG Repo, www.svgrepo.com, Generator: SVG Repo Mixer Tools -->
<!DOCTYPE svg PUBLIC "-//W3C//DTD SVG 1.1//EN" "http://www.w3.org/Graphics/SVG/1.1/DTD/svg11.dtd">
<svg fill="#000000" version="1.1" id="Capa_1" xmlns="http://www.w3.org/2000/svg" xmlns:xlink="http://www.w3.org/1999/xlink" 
	 width="800px" height="800px" viewBox="0 0 241.538 241.538"
	 xml:space="preserve">
<g>
	<path d="M229.27,33.737h-217C5.504,33.737,0,39.242,0,46.006v19.294c0,6.765,5.504,12.269,12.269,12.269H22.75v19.957
		c0,5.479,4.013,10.026,9.25,10.89v87.116c0,6.764,5.504,12.269,12.269,12.269c4.015,0,7.269-3.255,7.269-7.269
		c0-3.223-2.097-5.955-5-6.908v-85.047h148.463v85.047c-2.903,0.953-5,3.686-5,6.908c0,4.014,3.254,7.269,7.269,7.269
		c6.766,0,12.27-5.505,12.27-12.269v-87.116c5.236-0.864,9.25-5.411,9.25-10.89V77.568h10.48c6.765,0,12.269-5.504,12.269-12.269
		V46.006C241.538,39.242,236.034,33.737,229.27,33.737z M113.5,94.039H37.288v-16.47h25.493c0.867,2.528,3.259,4.349,6.081,4.349
		h13.469c2.823,0,5.215-1.82,6.081-4.349h25.089L113.5,94.039L113.5,94.039z M204.25,94.039h-76.213v-16.47h25.089
		c0.867,2.528,3.259,4.349,6.081,4.349h13.469c2.823,0,5.215-1.82,6.081-4.349h25.493V94.039L204.25,94.039z M227,63.032h-19.264
		H33.8H14.538V48.274h212.463L227,63.032L227,63.032z"/>
</g>
</svg>